# File created by Blade
# Date/Time:  Thu Sep 25 15:41:58 2014
# Frame Rate: 120.000 fps
#------------------------------------------------------
:FULLY-SPECIFIED
:DEGREES
813
root 23.131505 32.477864 -0.144159 55.073691 -81.264693 -43.604936
Spine 9.527851 18.358339 6.298502
Head -32.902184 49.976639 -15.546282
LeftShoulder -6.861463 23.439193 11.357160
LeftArm 39.936944 31.537599 -56.728492
LeftForeArm 2.525645 -0.000000 54.706876
LeftHand -27.787328 -0.000000 6.484905
LeftHandThumb1 -26.253704 0.000000 33.147579
RightShoulder -8.269721 11.310523 -21.200889
RightArm -3.197346 -43.351821 90.211620
RightForeArm -17.080296 -0.000000 38.163787
RightHand -1.858759 -0.000000 7.064108
RightHandThumb1 -24.326973 -0.000000 -32.862282
LeftUpLeg -41.288814 5.174111 0.909919
LeftLeg 39.322644 -0.000000 -0.000000
LeftFoot -13.454055 9.010217 -27.212437
LeftToeBase -5.520325 -0.000000 0.000000
RightUpLeg -14.104259 -8.120034 14.066382
RightLeg 17.788182 -0.000000 -0.000000
RightFoot -17.638269 -12.305151 -4.083907
RightToeBase 0.119479 -0.000000 -0.000000
814
root 23.188294 32.497157 -0.102240 52.239646 -80.896401 -41.077078
Spine 9.509863 18.356129 6.570440
Head -32.651885 49.978883 -15.541556
LeftShoulder -7.131022 23.716011 11.236793
LeftArm 39.205137 31.244978 -57.094155
LeftForeArm 2.130771 -0.000000 56.898086
LeftHand -27.609998 -0.000000 5.574418
LeftHandThumb1 -26.253704 0.000000 33.147579
RightShoulder -8.473745 11.047988 -21.244886
RightArm -3.452323 -43.220587 90.012056
RightForeArm -16.980215 -0.000000 39.656759
RightHand -1.975989 -0.000000 8.035125
RightHandThumb1 -24.326973 -0.000000 -32.862282
LeftUpLeg -40.720536 5.197867 1.143328
LeftLeg 39.779429 -0.000000 -0.000000
LeftFoot -13.935745 9.057966 -27.228650
LeftToeBase -5.467888 -0.000000 0.000000
RightUpLeg -13.735579 -8.282333 13.963844
RightLeg 17.372905 -0.000000 -0.000000
RightFoot -17.458427 -12.532262 -3.899625
RightToeBase 0.173592 -0.000000 -0.000000
815
root 23.251010 32.513942 -0.051478 49.593964 -80.562337 -38.685954
Spine 9.429362 18.373728 6.803495
Head -32.242147 49.900301 -15.381241
LeftShoulder -7.359747 24.032649 11.135435
LeftArm 38.587000 31.026164 -57.317324
LeftForeArm 1.724740 -0.000000 59.104268
LeftHand -27.564746 0.000000 4.679943
LeftHandThumb1 -26.253704 0.000000 33.147579
RightShoulder -8.678388 10.755704 -21.354225
RightArm -3.708451 -43.162621 89.805045
RightForeArm -16.773281 -0.000000 41.279079
RightHand -1.901688 -0.000000 8.541359
RightHandThumb1 -24.326973 -0.000000 -32.862282
LeftUpLeg -40.178919 5.261134 1.270714
LeftLeg 40.143179 -0.000000 -0.000000
LeftFoot -14.436035 9.262340 -27.064867
LeftToeBase -5.340785 -0.000000 0.000000
RightUpLeg -13.486416 -8.579588 13.819125
RightLeg 17.099403 -0.000000 -0.000000
RightFoot -17.370763 -12.579579 -3.726301
RightToeBase 0.289810 -0.000000 -0.000000
816
root 23.306625 32.533421 -0.009185 47.168985 -80.192405 -36.536337
Spine 9.400404 18.401117 7.018945
Head -31.944414 49.784226 -15.238586
LeftShoulder -7.663291 24.453735 10.990668
LeftArm 38.223781 30.803535 -57.282129
LeftForeArm 1.304971 0.000000 61.347850
LeftHand -27.377341 0.000000 3.592311
LeftHandThumb1 -26.253704 0.000000 33.147579
RightShoulder -8.969093 10.446430 -21.407416
RightArm -3.905975 -43.228400 89.520086
RightForeArm -16.611916 0.000000 43.054546
RightHand -1.886890 -0.000000 8.750970
RightHandThumb1 -24.326973 -0.000000 -32.862282
LeftUpLeg -39.570721 5.224908 1.589372
LeftLeg 40.555814 -0.000000 -0.000000
LeftFoot -14.905936 8.941297 -27.456700
LeftToeBase -5.183741 -0.000000 0.000000
RightUpLeg -13.166390 -8.836694 13.708649
RightLeg 16.749240 -0.000000 -0.000000
RightFoot -17.218627 -12.712402 -3.505779
RightToeBase 0.172946 -0.000000 -0.000000
817
root 23.366516 32.549700 0.028919 45.061767 -79.797917 -34.632488
Spine 9.273665 18.420587 7.204263
Head -31.585824 49.591079 -14.988129
LeftShoulder -7.945636 24.888200 10.934983
LeftArm 37.880351 30.606126 -57.275909
LeftForeArm 1.291142 -0.000000 63.490177
LeftHand -27.032592 -0.000000 2.229106
LeftHandThumb1 -26.253704 0.000000 33.147579
RightShoulder -9.250151 10.011221 -21.497238
RightArm -3.981311 -43.324324 89.194326
RightForeArm -16.547709 0.000000 44.924167
RightHand -1.904178 -0.000000 8.832342
RightHandThumb1 -24.326973 -0.000000 -32.862282
LeftUpLeg -39.081337 5.396032 1.729203
LeftLeg 40.870571 -0.000000 -0.000000
LeftFoot -15.254541 9.296595 -26.905919
LeftToeBase -5.374840 -0.000000 0.000000
RightUpLeg -12.949889 -9.037265 13.626065
RightLeg 16.437546 -0.000000 -0.000000
RightFoot -17.068983 -12.907067 -3.323766
RightToeBase 0.320165 -0.000000 -0.000000
818
root 23.392031 32.569263 0.073418 42.178451 -79.107594 -32.057691
Spine 9.181248 18.115826 7.529376
Head -31.164335 49.377366 -14.768248
LeftShoulder -8.266558 25.489843 10.713977
LeftArm 37.795667 30.483066 -56.947831
LeftForeArm 1.125992 -0.000000 65.659142
LeftHand -26.812751 -0.000000 1.151746
LeftHandThumb1 -26.253704 0.000000 33.147579
RightShoulder -9.581048 9.601865 -21.522082
RightArm -4.173480 -43.491304 88.823106
RightForeArm -16.492347 -0.000000 46.922387
RightHand -1.703758 0.000000 9.236185
RightHandThumb1 -24.326973 -0.000000 -32.862282
LeftUpLeg -38.402782 5.222186 2.004346
LeftLeg 41.120206 -0.000000 -0.000000
LeftFoot -15.618665 9.377318 -26.836756
LeftToeBase -5.328230 -0.000000 0.000000
RightUpLeg -12.499711 -9.679025 13.609668
RightLeg 15.920040 -0.000000 -0.000000
RightFoot -16.836367 -13.003217 -3.299007
RightToeBase 0.242287 -0.000000 -0.000000
819
root 23.410880 32.587470 0.112530 39.599116 -78.286206 -29.748366
Spine 9.001275 17.676647 7.870685
Head -30.722367 49.178420 -14.505708
LeftShoulder -8.655337 26.045483 10.499226
LeftArm 37.704506 30.456344 -56.591833
LeftForeArm 0.954093 0.000000 67.753538
LeftHand -26.506125 -0.000000 0.129466
LeftHandThumb1 -26.253704 0.000000 33.147579
RightShoulder -9.877034 9.196152 -21.584749
RightArm -4.401690 -43.728200 88.517430
RightForeArm -16.554201 -0.000000 48.944300
RightHand -1.526431 -0.000000 9.406984
RightHandThumb1 -24.326973 -0.000000 -32.862282
LeftUpLeg -37.764856 4.989728 2.343313
LeftLeg 41.366335 -0.000000 -0.000000
LeftFoot -16.048718 9.452857 -26.846221
LeftToeBase -5.242314 -0.000000 0.000000
RightUpLeg -12.055073 -10.357616 13.664060
RightLeg 15.332226 -0.000000 -0.000000
RightFoot -16.623152 -13.161353 -3.224197
RightToeBase 0.312359 -0.000000 -0.000000
820
root 23.451341 32.605016 0.160257 37.531520 -77.699462 -27.884784
Spine 8.839485 17.491585 8.060560
Head -30.342736 48.950316 -14.272053
LeftShoulder -8.907634 26.557909 10.390379
LeftArm 37.598801 30.408590 -56.286459
LeftForeArm 0.726990 -0.000000 69.813766
LeftHand -26.127045 -0.000000 -0.938446
LeftHandThumb1 -26.253704 0.000000 33.147579
RightShoulder -10.186249 8.767538 -21.662678
RightArm -4.532379 -43.910969 88.152284
RightForeArm -16.689547 -0.000000 51.043930
RightHand -1.441577 -0.000000 9.683202
RightHandThumb1 -24.326973 -0.000000 -32.862282
LeftUpLeg -37.183692 5.056321 2.453851
LeftLeg 41.492050 -0.000000 -0.000000
LeftFoot -16.596866 9.798035 -26.861746
LeftToeBase -4.948735 -0.000000 0.000000
RightUpLeg -11.785389 -10.854843 13.584141
RightLeg 14.950937 -0.000000 -0.000000
RightFoot -16.424317 -13.298531 -3.182492
RightToeBase 0.231596 -0.000000 -0.000000
821
root 23.490412 32.623987 0.205404 35.785981 -77.182893 -26.380412
Spine 8.758931 17.396991 8.210344
Head -30.005013 48.638626 -13.986179
LeftShoulder -9.200239 27.021296 10.279754
LeftArm 37.646321 30.418871 -55.845862
LeftForeArm 0.442953 -0.000000 71.789768
LeftHand -25.942289 -0.000000 -1.929273
LeftHandThumb1 -26.253704 0.000000 33.147579
RightShoulder -10.516673 8.445991 -21.750290
RightArm -4.738848 -44.153146 87.870189
RightForeArm -16.748709 -0.000000 53.117794
RightHand -1.453348 -0.000000 9.739414
RightHandThumb1 -24.326973 -0.000000 -32.862282
LeftUpLeg -36.524209 5.119067 2.630657
LeftLeg 41.598553 -0.000000 -0.000000
LeftFoot -16.992217 9.970618 -26.623085
LeftToeBase -5.202003 -0.000000 0.000000
RightUpLeg -11.440487 -11.189128 13.484056
RightLeg 14.484174 -0.000000 -0.000000
RightFoot -16.127915 -13.537876 -3.169270
RightToeBase 0.061509 -0.000000 -0.000000
